<svg xmlns="http://www.w3.org/2000/svg" viewBox="0 0 128 128" width="128" height="128">
  <defs>
    <linearGradient id="bg" x1="0%" y1="0%" x2="100%" y2="100%">
      <stop offset="0%" stop-color="#12B886" />
      <stop offset="100%" stop-color="#2F80ED" />
    </linearGradient>
    <linearGradient id="accent" x1="0%" y1="0%" x2="100%" y2="0%">
      <stop offset="0%" stop-color="#F9D423" />
      <stop offset="100%" stop-color="#FF8C37" />
    </linearGradient>
  </defs>

  <!-- Soft rounded background -->
  <rect x="6" y="6" width="116" height="116" rx="28" fill="url(#bg)" />

  <!-- New cart silhouette (sleeker) -->
  <g transform="translate(22 32)" stroke="white" stroke-width="4" stroke-linecap="round" stroke-linejoin="round" fill="none">
    <!-- handle and upper bar -->
    <path d="M6 10h16l6 12h44c2 0 3 2 2.4 4l-6 20c-.5 1.7-1.9 3-3.6 3H30.5c-1.6 0-3-1-3.5-2.5L18 22H6" />
    <!-- basket belly -->
    <path d="M28 42h32" opacity="0.85" />
    <!-- wheels -->
    <circle cx="32" cy="66" r="5" fill="white" />
    <circle cx="66" cy="66" r="5" fill="white" />
  </g>

  <!-- Clean interior (no dots/lines) -->

  <!-- Accent star badge (kept) -->
  <g transform="translate(92 36)">
    <circle cx="0" cy="0" r="14" fill="url(#accent)" stroke="white" stroke-width="3" />
    <path d="M0 -7 L2 -1 L8 0 L2 1 L0 7 L-2 1 L-8 0 L-2 -1 Z" fill="white" opacity="0.9" />
  </g>
</svg>
