<svg xmlns="http://www.w3.org/2000/svg" viewBox="0 0 1200 630"><title>Google Merchant Center misrepresentation suspension — suspended without warning</title>
 <defs>
  <linearGradient id="bg" x1="0" y1="0" x2="1" y2="1"><stop offset="0" stop-color="#07101f"/><stop offset="1" stop-color="#0d1a30"/></linearGradient>
  <radialGradient id="glowR" cx="0.5" cy="0.5" r="0.5"><stop offset="0" stop-color="#ef6f6f" stop-opacity="0.30"/><stop offset="1" stop-color="#ef6f6f" stop-opacity="0"/></radialGradient>
  <radialGradient id="glowC" cx="0.5" cy="0.5" r="0.5"><stop offset="0" stop-color="#41c6ee" stop-opacity="0.18"/><stop offset="1" stop-color="#41c6ee" stop-opacity="0"/></radialGradient>
  <linearGradient id="panel" x1="0" y1="0" x2="0" y2="1"><stop offset="0" stop-color="#0e1c34"/><stop offset="1" stop-color="#0a1526"/></linearGradient>
 </defs>
 <rect width="1200" height="630" fill="url(#bg)"/>

 <circle cx="930" cy="300" r="320" fill="url(#glowR)"/>
 <circle cx="250" cy="540" r="280" fill="url(#glowC)"/>

 <g stroke="#25395a" stroke-width="1" opacity="0.35">
  <line x1="0" y1="120" x2="1200" y2="120"/>
  <line x1="0" y1="240" x2="1200" y2="240"/>
  <line x1="0" y1="390" x2="1200" y2="390"/>
  <line x1="0" y1="510" x2="1200" y2="510"/>
 </g>
 <g fill="#25395a" opacity="0.5">
  <circle cx="120" cy="120" r="2.5"/><circle cx="240" cy="120" r="2.5"/><circle cx="120" cy="240" r="2.5"/><circle cx="240" cy="240" r="2.5"/>
  <circle cx="120" cy="510" r="2.5"/><circle cx="240" cy="510" r="2.5"/>
  <circle cx="1080" cy="120" r="2.5"/><circle cx="1080" cy="510" r="2.5"/>
 </g>

 <g transform="translate(96,200)">
  <rect x="0" y="0" width="10" height="36" rx="3" fill="#ef6f6f"/>
  <text x="32" y="26" font-family="Inter, system-ui, -apple-system, Segoe UI, Roboto, sans-serif" font-size="24" font-weight="700" letter-spacing="4" fill="#41c6ee">MISREPRESENTATION</text>
 </g>

 <text x="96" y="330" font-family="Inter, system-ui, -apple-system, Segoe UI, Roboto, sans-serif" font-size="92" font-weight="800" fill="#e9f0fa" letter-spacing="-1">Suspended</text>
 <text x="96" y="430" font-family="Inter, system-ui, -apple-system, Segoe UI, Roboto, sans-serif" font-size="92" font-weight="800" fill="#e9f0fa" letter-spacing="-1">Without <tspan fill="#ef6f6f">Warning</tspan></text>

 <text x="98" y="492" font-family="Inter, system-ui, -apple-system, Segoe UI, Roboto, sans-serif" font-size="24" font-weight="400" fill="#9fb2c9">An egregious Merchant Center violation — and how to fix it</text>

 <g transform="translate(872,168)">
  <rect x="0" y="0" width="248" height="300" rx="20" fill="url(#panel)" stroke="#25395a" stroke-width="1.5"/>

  <circle cx="124" cy="64" r="40" fill="none" stroke="#25395a" stroke-width="1.5"/>
  <circle cx="124" cy="64" r="40" fill="none" stroke="#41c6ee" stroke-width="3" stroke-linecap="round" stroke-dasharray="172 80" transform="rotate(-90 124 64)"/>
  <text x="124" y="58" text-anchor="middle" font-family="Inter, system-ui, -apple-system, Segoe UI, Roboto, sans-serif" font-size="13" font-weight="600" letter-spacing="2" fill="#6b819c">TRUST</text>
  <text x="124" y="80" text-anchor="middle" font-family="Inter, system-ui, -apple-system, Segoe UI, Roboto, sans-serif" font-size="15" font-weight="700" fill="#41c6ee">SCAN</text>

  <g transform="translate(28,128)">
   <rect x="0" y="0" width="192" height="34" rx="9" fill="#0a1526" stroke="#25395a" stroke-width="1"/>
   <circle cx="20" cy="17" r="7" fill="none" stroke="#38d39a" stroke-width="2"/>
   <path d="M16.5 17l2.5 2.5 4.5-5" fill="none" stroke="#38d39a" stroke-width="2" stroke-linecap="round" stroke-linejoin="round"/>
   <text x="40" y="22" font-family="Inter, system-ui, -apple-system, Segoe UI, Roboto, sans-serif" font-size="15" font-weight="500" fill="#e9f0fa">Refund policy</text>
  </g>
  <g transform="translate(28,170)">
   <rect x="0" y="0" width="192" height="34" rx="9" fill="#0a1526" stroke="#25395a" stroke-width="1"/>
   <circle cx="20" cy="17" r="7" fill="none" stroke="#38d39a" stroke-width="2"/>
   <path d="M16.5 17l2.5 2.5 4.5-5" fill="none" stroke="#38d39a" stroke-width="2" stroke-linecap="round" stroke-linejoin="round"/>
   <text x="40" y="22" font-family="Inter, system-ui, -apple-system, Segoe UI, Roboto, sans-serif" font-size="15" font-weight="500" fill="#e9f0fa">Contact info</text>
  </g>
  <g transform="translate(28,212)">
   <rect x="0" y="0" width="192" height="34" rx="9" fill="#0a1526" stroke="#25395a" stroke-width="1"/>
   <circle cx="20" cy="17" r="7" fill="none" stroke="#ef6f6f" stroke-width="2"/>
   <path d="M16.5 13.5l7 7M23.5 13.5l-7 7" fill="none" stroke="#ef6f6f" stroke-width="2" stroke-linecap="round"/>
   <text x="40" y="22" font-family="Inter, system-ui, -apple-system, Segoe UI, Roboto, sans-serif" font-size="15" font-weight="500" fill="#e9f0fa">Pricing flags</text>
  </g>
  <g transform="translate(28,254)">
   <rect x="0" y="0" width="192" height="34" rx="9" fill="#0a1526" stroke="#25395a" stroke-width="1"/>
   <circle cx="20" cy="17" r="7" fill="none" stroke="#e89b3c" stroke-width="2"/>
   <text x="20" y="22" text-anchor="middle" font-family="Inter, system-ui, -apple-system, Segoe UI, Roboto, sans-serif" font-size="11" font-weight="700" fill="#e89b3c">!</text>
   <text x="40" y="22" font-family="Inter, system-ui, -apple-system, Segoe UI, Roboto, sans-serif" font-size="15" font-weight="500" fill="#e9f0fa">Fake urgency</text>
  </g>
 </g>
</svg>
